<svg xmlns="http://www.w3.org/2000/svg" viewBox="0 0 512 512" width="512" height="512">
  <defs>
    <linearGradient id="grad" x1="0%" y1="0%" x2="100%" y2="100%">
      <stop offset="0%" stop-color="#3b82f6" />
      <stop offset="50%" stop-color="#6366f1" />
      <stop offset="100%" stop-color="#8b5cf6" />
    </linearGradient>
    <filter id="glow" x="-20%" y="-20%" width="140%" height="140%">
      <feDropShadow dx="0" dy="8" stdDeviation="16" flood-color="#6366f1" flood-opacity="0.4"/>
    </filter>
  </defs>
  <rect width="512" height="512" rx="128" fill="#090d16" />
  <rect x="24" y="24" width="464" height="464" rx="104" fill="url(#grad)" opacity="0.1" />
  <g filter="url(#glow)">
    <!-- Chat Bubble Body -->
    <path d="M128 160 C128 124.65 156.65 96 192 96 L320 96 C355.35 96 384 124.65 384 160 L384 288 C384 323.35 355.35 352 320 352 L224 352 L150 416 C142 422.8 128 418.4 128 406 L128 352 C128 352 128 352 128 352 C128 352 128 352 128 352 Z" fill="url(#grad)"/>
    <!-- Video Signal Aperture Overlay -->
    <circle cx="216" cy="224" r="28" fill="#ffffff" opacity="0.9" />
    <circle cx="296" cy="224" r="28" fill="#ffffff" opacity="0.9" />
    <path d="M340 196 L376 172 L376 276 L340 252 Z" fill="#ffffff" opacity="0.9"/>
  </g>
</svg>
